<svg xmlns="http://www.w3.org/2000/svg" width="500" height="500" style="width:100%;height:100%"><defs><clipPath id="a"><path d="M0 0h500v500H0z"/></clipPath></defs><g clip-path="url(#a)"><path stroke-linecap="round" stroke-linejoin="round" stroke="#121330" stroke-width="12.6" d="M357.395 241.707l-.401 86.297s-27.487 50.287-107.049 50.029c-80.665-.262-108.846-50.029-108.846-50.029l.401-86.297" fill="none" display="block"/><path stroke-linecap="round" stroke-linejoin="round" stroke="#121330" stroke-width="12.6" d="M429.94 179.03l-180.419-63.812-179.49 63.781 179.49 63.781 180.419-63.75zm-357.657-.061l-2.098-.001-.154 29.031 179.49 63.781 180.449-64.031s0 0 0 0l.03-28.687-5.922-.002" fill="none" display="block"/><g stroke-linecap="round" stroke-linejoin="round" stroke="#2F80E8" fill="none" display="block"><path stroke-width="12.6" d="M250.5 177.999l77 28v105m0 2.5v23.844"/><path stroke-width="21" d="M327.5 313.499v23.844"/></g></g></svg>